# xmcd
#
# Track frame offsets:
#	150
#	15345
#	36051
#	53021
#	75661
#	106923
#	120832
#	137575
#	158454
#	174629
#	192906
#	212211
#	230986
#	249489
#	266156
#	280084
#	300096
#	317206
#	338540
#	355493
#
# Disc length: 4941
#
# Revision: 2
# Processed by: cddbd v1.5.1PL0 Copyright (c) Steve Scherf et al.
# Submitted via: EasyCDDAExtractor 5.1.0
# Normalized: r1:DSETVAR1
#
DISCID=0a134b14
DTITLE=Various Artist - best of men's
DYEAR=2003
DGENRE=Pop
TTITLE0=men's - bye bye bye
TTITLE1=boyzone - no matter what
TTITLE2=bon jove - you give love a bad name
TTITLE3=aron neivell - even if my heart would break
TTITLE4=eagles - hotel california
TTITLE5=five - if you getting down
TTITLE6=don willams - fever
TTITLE7=bertie higgins - casablanca
TTITLE8=911 - private number
TTITLE9=elton john - can you feel the love tonight
TTITLE10=beegees - immortality
TTITLE11=westlife - swear it can
TTITLE12=tradmark - only love
TTITLE13=mltr - blue night
TTITLE14=simon and garfunkel - the sound of silence
TTITLE15=rod stewart - some times when  we touch
TTITLE16=paul young - evertime you go away
TTITLE17=savage garden - truly mesly deeply
TTITLE18=backstreet boys - as long as you love me
TTITLE19=westlife - against all odds
EXTD=
EXTT0=
EXTT1=
EXTT2=
EXTT3=
EXTT4=
EXTT5=
EXTT6=
EXTT7=
EXTT8=
EXTT9=
EXTT10=
EXTT11=
EXTT12=
EXTT13=
EXTT14=
EXTT15=
EXTT16=
EXTT17=
EXTT18=
EXTT19=
PLAYORDER=
